<svg width="250" height="250" viewBox="0 0 250 250" fill="none" xmlns="http://www.w3.org/2000/svg">
<g clip-path="url(#clip0)">
<path d="M179.688 161.458C129.479 161.458 88.5417 120.521 88.5417 70.3125C88.5417 42.0833 101.458 16.7708 121.771 0H28.6458C12.8125 0 0 12.8125 0 28.6458V221.354C0 237.188 12.8125 250 28.6458 250H179.688C195.521 250 208.333 237.188 208.333 221.354V156.875C199.375 159.792 189.688 161.458 179.688 161.458Z" fill="#ECEFF1"/>
<path d="M104.167 0H28.6458C12.8125 0 0 12.8125 0 28.6458V221.354C0 237.188 12.8125 250 28.6458 250H104.167V121.25C94.3125 106.688 88.5417 89.1562 88.5417 70.3125C88.5417 51.4688 94.3021 33.9271 104.167 19.3542V0Z" fill="#CDD0D2"/>
<path d="M179.688 140.625C140.917 140.625 109.375 109.083 109.375 70.3125C109.375 31.5417 140.917 0 179.688 0C218.458 0 250 31.5417 250 70.3125C250 109.083 218.458 140.625 179.688 140.625Z" fill="#4DF34A"/>
<path d="M169.271 101.562C166.51 101.562 163.865 100.469 161.906 98.5102L141.073 77.6769C137 73.604 137 67.0207 141.073 62.9477C145.146 58.8748 151.729 58.8748 155.802 62.9477L168.76 75.9061L197.885 42.6144C201.677 38.3019 208.25 37.8436 212.583 41.6352C216.917 45.4269 217.354 51.9998 213.562 56.3332L177.104 97.9998C175.208 100.177 172.5 101.458 169.615 101.552L169.271 101.562Z" fill="white"/>
<path d="M179.688 0C140.917 0 109.375 31.5417 109.375 70.3125C109.375 109.083 140.917 140.625 179.688 140.625V95.0625L177.104 98.0104C175.208 100.177 172.5 101.458 169.615 101.552L169.271 101.562C166.51 101.562 163.865 100.469 161.906 98.5104L141.073 77.6771C137 73.6042 137 67.0208 141.073 62.9479C143.104 60.9167 145.771 59.8958 148.438 59.8958C151.104 59.8958 153.771 60.9167 155.802 62.9479L168.76 75.9063L179.688 63.4167V0Z" fill="#44CF41"/>
<path d="M148.437 59.8962C145.771 59.8962 143.104 60.9171 141.073 62.9483C137 67.0212 137 73.6046 141.073 77.6775L161.906 98.5108C163.865 100.469 166.51 101.563 169.271 101.563L169.615 101.552C172.5 101.459 175.208 100.167 177.104 98.0004L179.687 95.0525V63.4171L168.76 75.9067L155.802 62.9483C153.771 60.9171 151.104 59.8962 148.437 59.8962V59.8962Z" fill="#DEDEDE"/>
<path d="M22.182 182.924C21.7807 182.293 21.408 181.433 21.064 180.344C20.72 179.255 20.548 178.108 20.548 176.904C20.548 174.668 21.0353 173.063 22.01 172.088C23.042 171.113 24.3607 170.626 25.966 170.626H63.462C63.8633 171.257 64.236 172.117 64.58 173.206C64.924 174.295 65.096 175.442 65.096 176.646C65.096 178.882 64.58 180.487 63.548 181.462C62.5733 182.437 61.2833 182.924 59.678 182.924H50.132V222.656C49.5013 222.828 48.498 223 47.122 223.172C45.8033 223.344 44.4847 223.43 43.166 223.43C41.8473 223.43 40.672 223.315 39.64 223.086C38.6653 222.914 37.834 222.57 37.146 222.054C36.458 221.538 35.942 220.821 35.598 219.904C35.254 218.987 35.082 217.783 35.082 216.292V182.924H22.182ZM69.185 177.248C69.4717 176.445 69.873 175.643 70.389 174.84C70.905 174.037 71.5357 173.321 72.281 172.69C73.0837 172.002 74.001 171.457 75.033 171.056C76.065 170.597 77.2117 170.368 78.473 170.368C80.1357 170.368 81.5977 170.798 82.859 171.658C84.1204 172.461 85.4104 173.865 86.729 175.872L93.437 186.106L103.327 171.486C103.786 171.257 104.416 171.056 105.219 170.884C106.079 170.655 106.91 170.54 107.713 170.54C110.35 170.54 112.414 171.171 113.905 172.432C115.396 173.693 116.141 175.241 116.141 177.076C116.141 178.681 115.711 180.115 114.851 181.376C114.048 182.637 112.93 184.157 111.497 185.934L102.639 196.77L116.657 216.808C116.198 218.929 115.195 220.621 113.647 221.882C112.156 223.086 110.121 223.688 107.541 223.688C105.878 223.688 104.445 223.287 103.241 222.484C102.037 221.624 100.804 220.191 99.543 218.184L92.577 207.176L81.741 223.516C81.2824 223.573 80.8524 223.602 80.451 223.602C80.0497 223.659 79.6484 223.688 79.247 223.688C75.979 223.688 73.571 223.029 72.023 221.71C70.475 220.391 69.701 218.757 69.701 216.808C69.701 215.145 70.045 213.712 70.733 212.508C71.4784 211.247 72.5104 209.785 73.829 208.122L82.859 196.512L69.185 177.248ZM122.459 182.924C122.058 182.293 121.685 181.433 121.341 180.344C120.997 179.255 120.825 178.108 120.825 176.904C120.825 174.668 121.313 173.063 122.287 172.088C123.319 171.113 124.638 170.626 126.243 170.626H163.739C164.141 171.257 164.513 172.117 164.857 173.206C165.201 174.295 165.373 175.442 165.373 176.646C165.373 178.882 164.857 180.487 163.825 181.462C162.851 182.437 161.561 182.924 159.955 182.924H150.409V222.656C149.779 222.828 148.775 223 147.399 223.172C146.081 223.344 144.762 223.43 143.443 223.43C142.125 223.43 140.949 223.315 139.917 223.086C138.943 222.914 138.111 222.57 137.423 222.054C136.735 221.538 136.219 220.821 135.875 219.904C135.531 218.987 135.359 217.783 135.359 216.292V182.924H122.459Z" fill="#4DF34A"/>
</g>
<defs>
<clipPath id="clip0">
<rect width="250" height="250" fill="white"/>
</clipPath>
</defs>
</svg>
