<svg width="250" height="250" viewBox="0 0 250 250" fill="none" xmlns="http://www.w3.org/2000/svg">
<g clip-path="url(#clip0)">
<path d="M179.688 161.458C129.479 161.458 88.5417 120.521 88.5417 70.3125C88.5417 42.0833 101.458 16.7708 121.771 0H28.6458C12.8125 0 0 12.8125 0 28.6458V221.354C0 237.188 12.8125 250 28.6458 250H179.688C195.521 250 208.333 237.188 208.333 221.354V156.875C199.375 159.792 189.688 161.458 179.688 161.458Z" fill="#ECEFF1"/>
<path d="M104.167 0H28.6458C12.8125 0 0 12.8125 0 28.6458V221.354C0 237.188 12.8125 250 28.6458 250H104.167V121.25C94.3125 106.688 88.5417 89.1562 88.5417 70.3125C88.5417 51.4688 94.3021 33.9271 104.167 19.3542V0Z" fill="#CDD0D2"/>
<path d="M179.688 140.625C140.917 140.625 109.375 109.083 109.375 70.3125C109.375 31.5417 140.917 0 179.688 0C218.458 0 250 31.5417 250 70.3125C250 109.083 218.458 140.625 179.688 140.625Z" fill="#E2704C"/>
<path d="M169.271 101.562C166.51 101.562 163.865 100.469 161.906 98.5102L141.073 77.6769C137 73.604 137 67.0207 141.073 62.9477C145.146 58.8748 151.729 58.8748 155.802 62.9477L168.76 75.9061L197.885 42.6144C201.677 38.3019 208.25 37.8436 212.583 41.6352C216.917 45.4269 217.354 51.9998 213.562 56.3332L177.104 97.9998C175.208 100.177 172.5 101.458 169.615 101.552L169.271 101.562Z" fill="white"/>
<path d="M179.688 0C140.917 0 109.375 31.5417 109.375 70.3125C109.375 109.083 140.917 140.625 179.688 140.625V95.0625L177.104 98.0104C175.208 100.177 172.5 101.458 169.615 101.552L169.271 101.562C166.51 101.562 163.865 100.469 161.906 98.5104L141.073 77.6771C137 73.6042 137 67.0208 141.073 62.9479C143.104 60.9167 145.771 59.8958 148.438 59.8958C151.104 59.8958 153.771 60.9167 155.802 62.9479L168.76 75.9063L179.688 63.4167V0Z" fill="#BA5535"/>
<path d="M148.437 59.8962C145.771 59.8962 143.104 60.9171 141.073 62.9483C137 67.0212 137 73.6046 141.073 77.6775L161.906 98.5108C163.865 100.469 166.51 101.563 169.271 101.563L169.615 101.552C172.5 101.459 175.208 100.167 177.104 98.0004L179.687 95.0525V63.4171L168.76 75.9067L155.802 62.9483C153.771 60.9171 151.104 59.8962 148.437 59.8962V59.8962Z" fill="#DEDEDE"/>
<path d="M44.112 195.05C46.52 195.05 48.3547 194.505 49.616 193.416C50.9347 192.269 51.594 190.549 51.594 188.256C51.594 186.077 50.906 184.415 49.53 183.268C48.2113 182.064 46.262 181.462 43.682 181.462C42.7647 181.462 41.9907 181.491 41.36 181.548C40.7867 181.548 40.1847 181.605 39.554 181.72V195.05H44.112ZM39.64 222.656C39.0093 222.828 38.006 223 36.63 223.172C35.3113 223.344 33.9927 223.43 32.674 223.43C31.3553 223.43 30.18 223.315 29.148 223.086C28.1733 222.914 27.342 222.57 26.654 222.054C25.966 221.538 25.45 220.821 25.106 219.904C24.762 218.987 24.59 217.783 24.59 216.292V175.786C24.59 174.582 24.9053 173.665 25.536 173.034C26.224 172.346 27.1413 171.801 28.288 171.4C30.2373 170.712 32.4447 170.225 34.91 169.938C37.4327 169.594 39.9553 169.422 42.478 169.422C50.39 169.422 56.4387 171.113 60.624 174.496C64.8093 177.879 66.902 182.465 66.902 188.256C66.902 191.065 66.4433 193.617 65.526 195.91C64.666 198.146 63.3473 200.095 61.57 201.758C59.85 203.363 57.6427 204.625 54.948 205.542C52.3107 206.402 49.2433 206.832 45.746 206.832H39.64V222.656ZM89.5247 211.82C90.1554 211.935 90.9294 212.049 91.8467 212.164C92.764 212.221 93.624 212.25 94.4267 212.25C96.376 212.25 98.1534 211.963 99.7587 211.39C101.421 210.817 102.826 209.928 103.973 208.724C105.177 207.52 106.094 205.972 106.725 204.08C107.413 202.131 107.757 199.809 107.757 197.114C107.757 191.954 106.553 188.084 104.145 185.504C101.737 182.867 98.526 181.548 94.5127 181.548C93.71 181.548 92.8787 181.577 92.0187 181.634C91.216 181.691 90.3847 181.777 89.5247 181.892V211.82ZM94.3407 224.376C93.366 224.376 92.248 224.347 90.9867 224.29C89.7254 224.233 88.4067 224.118 87.0307 223.946C85.712 223.774 84.3647 223.545 82.9887 223.258C81.67 223.029 80.4374 222.685 79.2907 222.226C76.1374 221.022 74.5607 218.929 74.5607 215.948V175.786C74.5607 174.582 74.876 173.665 75.5067 173.034C76.1947 172.346 77.112 171.801 78.2587 171.4C80.724 170.597 83.3327 170.081 86.0847 169.852C88.8367 169.565 91.302 169.422 93.4807 169.422C97.9527 169.422 101.995 169.967 105.607 171.056C109.276 172.145 112.401 173.837 114.981 176.13C117.618 178.366 119.653 181.204 121.087 184.644C122.52 188.084 123.237 192.155 123.237 196.856C123.237 201.443 122.549 205.456 121.173 208.896C119.797 212.279 117.819 215.145 115.239 217.496C112.716 219.789 109.677 221.509 106.123 222.656C102.568 223.803 98.6407 224.376 94.3407 224.376ZM168.474 170.884C168.875 171.515 169.219 172.375 169.506 173.464C169.85 174.496 170.022 175.585 170.022 176.732C170.022 178.968 169.535 180.573 168.56 181.548C167.643 182.465 166.381 182.924 164.776 182.924H146.716V192.642H165.55C166.009 193.273 166.381 194.104 166.668 195.136C167.012 196.168 167.184 197.257 167.184 198.404C167.184 200.583 166.697 202.159 165.722 203.134C164.805 204.051 163.543 204.51 161.938 204.51H146.888V222.656C146.257 222.828 145.254 223 143.878 223.172C142.559 223.344 141.241 223.43 139.922 223.43C138.603 223.43 137.428 223.315 136.396 223.086C135.421 222.914 134.59 222.57 133.902 222.054C133.214 221.538 132.698 220.821 132.354 219.904C132.01 218.987 131.838 217.783 131.838 216.292V178.882C131.838 176.417 132.555 174.467 133.988 173.034C135.421 171.601 137.371 170.884 139.836 170.884H168.474Z" fill="#E2704C"/>
</g>
<defs>
<clipPath id="clip0">
<rect width="250" height="250" fill="white"/>
</clipPath>
</defs>
</svg>
