<svg id="Capa_1" enable-background="new 0 0 512 512" height="512" viewBox="0 0 512 512" width="512" xmlns="http://www.w3.org/2000/svg"><g><path d="m458 145h-404c-24.813 0-45 20.187-45 45v180c0 24.813 20.187 45 45 45h404c24.813 0 45-20.187 45-45v-180c0-24.813-20.187-45-45-45zm-330.259 158.338c-3.835 0-10.387.027-16.52.058v34.597c0 8.284-6.716 15-15 15s-15-6.716-15-15l-.221-113.945c-.013-3.986 1.562-7.814 4.376-10.638s6.638-4.41 10.624-4.41h31.741c26.356 0 47.799 21.16 47.799 47.169s-21.443 47.169-47.799 47.169zm128.768 46.038c-8.934.156-31.281.241-32.228.245-.019 0-.038 0-.057 0-3.958 0-7.757-1.564-10.567-4.354-2.824-2.803-4.418-6.613-4.433-10.592-.001-.4-.224-110.646-.224-110.646-.007-3.983 1.569-7.806 4.383-10.625s6.634-4.404 10.617-4.404h31.33c35.692 0 59.672 28.256 59.672 70.311 0 40.006-24.6 69.473-58.493 70.065zm153.711-86.026c8.284 0 15 6.716 15 15s-6.716 15-15 15h-27.22v42.65c0 8.284-6.716 15-15 15s-15-6.716-15-15v-113.158c0-8.284 6.716-15 15-15h45.863c8.284 0 15 6.716 15 15s-6.716 15-15 15h-30.863v25.508z"/><path d="m255.33 239h-16.303c.023 13.54.105 67.514.147 80.543 6.242-.04 12.926-.095 16.811-.163 20.045-.35 29.018-20.377 29.018-40.069-.001-9.457-2.14-40.311-29.673-40.311z"/><path d="m127.741 239h-16.696c.018 6.675.035 13.776.035 17.169 0 3.965.028 10.842.06 17.228 6.156-.031 12.732-.059 16.602-.059 9.648 0 17.799-7.862 17.799-17.169s-8.152-17.169-17.8-17.169z"/><path d="m442.455 115c-3.477-9.53-8.877-18.338-16.027-25.88l-62.305-65.721c-14.098-14.87-33.936-23.399-54.428-23.399h-199.695c-24.813 0-45 20.187-45 45v70z"/><path d="m65 445v22c0 24.813 20.187 45 45 45h292c24.813 0 45-20.187 45-45v-22z"/></g></svg>