<svg width="250" height="250" viewBox="0 0 250 250" fill="none" xmlns="http://www.w3.org/2000/svg">
<g clip-path="url(#clip0)">
<path d="M179.688 161.458C129.479 161.458 88.5417 120.521 88.5417 70.3125C88.5417 42.0833 101.458 16.7708 121.771 0H28.6458C12.8125 0 0 12.8125 0 28.6458V221.354C0 237.188 12.8125 250 28.6458 250H179.688C195.521 250 208.333 237.188 208.333 221.354V156.875C199.375 159.792 189.688 161.458 179.688 161.458V161.458Z" fill="#ECEFF1"/>
<path d="M104.167 0H28.6458C12.8125 0 0 12.8125 0 28.6458V221.354C0 237.188 12.8125 250 28.6458 250H104.167V121.25C94.3125 106.688 88.5417 89.1563 88.5417 70.3125C88.5417 51.4688 94.3021 33.9271 104.167 19.3542V0Z" fill="#CDD0D2"/>
<path d="M156.25 229.166C151.938 229.166 148.438 225.666 148.438 221.354V177.083C148.438 172.771 151.938 169.271 156.25 169.271C160.563 169.271 164.063 172.771 164.063 177.083V221.354C164.063 225.666 160.563 229.166 156.25 229.166Z" fill="#FF5353"/>
<path d="M169.271 182.292H143.229C138.917 182.292 135.417 178.792 135.417 174.479C135.417 170.167 138.917 166.667 143.229 166.667H169.271C173.583 166.667 177.083 170.167 177.083 174.479C177.083 178.792 173.583 182.292 169.271 182.292Z" fill="#FF5353"/>
<path d="M52.0833 166.667H39.0625C34.7917 166.667 31.25 170.208 31.25 174.479V221.354C31.25 225.625 34.7917 229.167 39.0625 229.167C43.3333 229.167 46.875 225.625 46.875 221.354V208.333H52.0833C63.5417 208.333 72.9167 198.958 72.9167 187.5C72.9167 176.042 63.5417 166.667 52.0833 166.667ZM52.0833 192.708H46.875V182.292H52.0833C55 182.292 57.2917 184.583 57.2917 187.5C57.2917 190.417 55 192.708 52.0833 192.708Z" fill="#FF5353"/>
<path d="M104.166 166.667H91.1456C86.8748 166.667 83.3331 170.208 83.3331 174.479V221.354C83.3331 225.625 86.8748 229.167 91.1456 229.167C95.4165 229.167 98.9581 225.625 98.9581 221.354V208.333H104.166C115.625 208.333 125 198.958 125 187.5C125 176.042 115.625 166.667 104.166 166.667ZM104.166 192.708H98.9581V182.292H104.166C107.083 182.292 109.375 184.583 109.375 187.5C109.375 190.417 107.083 192.708 104.166 192.708Z" fill="#FF5353"/>
<path d="M179.688 140.625C140.917 140.625 109.375 109.083 109.375 70.3125C109.375 31.5417 140.917 0 179.688 0C218.458 0 250 31.5417 250 70.3125C250 109.083 218.458 140.625 179.688 140.625Z" fill="#FF5353"/>
<path d="M169.271 101.562C166.51 101.562 163.865 100.469 161.906 98.5102L141.073 77.6769C137 73.604 137 67.0207 141.073 62.9477C145.146 58.8748 151.729 58.8748 155.802 62.9477L168.76 75.9061L197.885 42.6144C201.677 38.3019 208.25 37.8436 212.583 41.6352C216.917 45.4269 217.354 51.9998 213.562 56.3332L177.104 97.9998C175.208 100.177 172.5 101.458 169.615 101.552L169.271 101.562Z" fill="white"/>
<path d="M179.688 0C140.917 0 109.375 31.5417 109.375 70.3125C109.375 109.083 140.917 140.625 179.688 140.625V95.0625L177.104 98.0104C175.208 100.177 172.5 101.458 169.615 101.552L169.271 101.563C166.51 101.563 163.865 100.469 161.906 98.5104L141.073 77.6771C137 73.6042 137 67.0208 141.073 62.9479C143.104 60.9167 145.771 59.8958 148.438 59.8958C151.104 59.8958 153.771 60.9167 155.802 62.9479L168.76 75.9063L179.688 63.4167V0Z" fill="#CC3636"/>
<path d="M148.437 59.8962C145.771 59.8962 143.104 60.9171 141.073 62.9483C137 67.0212 137 73.6046 141.073 77.6775L161.906 98.5108C163.865 100.469 166.51 101.563 169.271 101.563L169.615 101.552C172.5 101.459 175.208 100.167 177.104 98.0004L179.687 95.0525V63.4171L168.76 75.9067L155.802 62.9483C153.771 60.9171 151.104 59.8962 148.437 59.8962V59.8962Z" fill="#DEDEDE"/>
<path d="M164.063 197.917H148.438V221.354C148.438 225.667 151.938 229.167 156.25 229.167C160.563 229.167 164.063 225.667 164.063 221.354V197.917Z" fill="#CC3636"/>
<path d="M70.1042 197.917H31.25V221.354C31.25 225.625 34.7917 229.167 39.0625 229.167C43.3333 229.167 46.875 225.625 46.875 221.354V208.334H52.0833C59.75 208.334 66.4896 204.136 70.1042 197.917Z" fill="#CC3636"/>
<path d="M122.188 197.917H83.3334V221.354C83.3334 225.625 86.8751 229.167 91.1459 229.167C95.4168 229.167 98.9584 225.625 98.9584 221.354V208.334H104.167C111.833 208.334 118.573 204.136 122.188 197.917Z" fill="#CC3636"/>
</g>
<defs>
<clipPath id="clip0">
<rect width="250" height="250" fill="white"/>
</clipPath>
</defs>
</svg>
