<svg width="250" height="250" viewBox="0 0 250 250" fill="none" xmlns="http://www.w3.org/2000/svg">
<g clip-path="url(#clip0)">
<path d="M179.688 161.458C129.479 161.458 88.5417 120.521 88.5417 70.3125C88.5417 42.0833 101.458 16.7708 121.771 0H28.6458C12.8125 0 0 12.8125 0 28.6458V221.354C0 237.188 12.8125 250 28.6458 250H179.688C195.521 250 208.333 237.188 208.333 221.354V156.875C199.375 159.792 189.688 161.458 179.688 161.458V161.458Z" fill="#ECEFF1"/>
<path d="M104.167 0H28.6458C12.8125 0 0 12.8125 0 28.6458V221.354C0 237.188 12.8125 250 28.6458 250H104.167V121.25C94.3125 106.688 88.5417 89.1562 88.5417 70.3125C88.5417 51.4688 94.3021 33.9271 104.167 19.3542V0Z" fill="#CDD0D2"/>
<path d="M179.688 140.625C140.917 140.625 109.375 109.083 109.375 70.3125C109.375 31.5417 140.917 0 179.688 0C218.458 0 250 31.5417 250 70.3125C250 109.083 218.458 140.625 179.688 140.625Z" fill="#5383FF"/>
<path d="M169.271 101.562C166.51 101.562 163.865 100.469 161.906 98.5102L141.073 77.6769C137 73.604 137 67.0207 141.073 62.9477C145.146 58.8748 151.729 58.8748 155.802 62.9477L168.76 75.9061L197.885 42.6144C201.677 38.3019 208.25 37.8436 212.583 41.6352C216.917 45.4269 217.354 51.9998 213.562 56.3332L177.104 97.9998C175.208 100.177 172.5 101.458 169.615 101.552L169.271 101.562Z" fill="white"/>
<path d="M179.688 0C140.917 0 109.375 31.5417 109.375 70.3125C109.375 109.083 140.917 140.625 179.688 140.625V95.0625L177.104 98.0104C175.208 100.177 172.5 101.458 169.615 101.552L169.271 101.562C166.51 101.562 163.865 100.469 161.906 98.5104L141.073 77.6771C137 73.6042 137 67.0208 141.073 62.9479C143.104 60.9167 145.771 59.8958 148.438 59.8958C151.104 59.8958 153.771 60.9167 155.802 62.9479L168.76 75.9063L179.688 63.4167V0Z" fill="#5167A0"/>
<path d="M148.437 59.8962C145.771 59.8962 143.104 60.9171 141.073 62.9483C137 67.0212 137 73.6046 141.073 77.6775L161.906 98.5108C163.865 100.469 166.51 101.563 169.271 101.563L169.615 101.552C172.5 101.459 175.208 100.167 177.104 98.0004L179.687 95.0525V63.4171L168.76 75.9067L155.802 62.9483C153.771 60.9171 151.104 59.8962 148.437 59.8962Z" fill="#DEDEDE"/>
<path d="M39.554 211.82C40.1847 211.935 40.9587 212.049 41.876 212.164C42.7933 212.221 43.6533 212.25 44.456 212.25C46.4053 212.25 48.1827 211.963 49.788 211.39C51.4507 210.817 52.8553 209.928 54.002 208.724C55.206 207.52 56.1233 205.972 56.754 204.08C57.442 202.131 57.786 199.809 57.786 197.114C57.786 191.954 56.582 188.084 54.174 185.504C51.766 182.867 48.5553 181.548 44.542 181.548C43.7393 181.548 42.908 181.577 42.048 181.634C41.2453 181.691 40.414 181.777 39.554 181.892V211.82ZM44.37 224.376C43.3953 224.376 42.2773 224.347 41.016 224.29C39.7547 224.233 38.436 224.118 37.06 223.946C35.7413 223.774 34.394 223.545 33.018 223.258C31.6993 223.029 30.4667 222.685 29.32 222.226C26.1667 221.022 24.59 218.929 24.59 215.948V175.786C24.59 174.582 24.9053 173.665 25.536 173.034C26.224 172.346 27.1413 171.801 28.288 171.4C30.7533 170.597 33.362 170.081 36.114 169.852C38.866 169.565 41.3313 169.422 43.51 169.422C47.982 169.422 52.024 169.967 55.636 171.056C59.3053 172.145 62.43 173.837 65.01 176.13C67.6473 178.366 69.6827 181.204 71.116 184.644C72.5493 188.084 73.266 192.155 73.266 196.856C73.266 201.443 72.578 205.456 71.202 208.896C69.826 212.279 67.848 215.145 65.268 217.496C62.7453 219.789 59.7067 221.509 56.152 222.656C52.5973 223.803 48.67 224.376 44.37 224.376ZM79.2873 196.856C79.2873 192.384 79.9753 188.428 81.3513 184.988C82.7847 181.548 84.7053 178.681 87.1133 176.388C89.5787 174.037 92.4453 172.26 95.7133 171.056C99.0387 169.852 102.622 169.25 106.463 169.25C110.305 169.25 113.859 169.852 117.127 171.056C120.453 172.26 123.348 174.037 125.813 176.388C128.279 178.681 130.199 181.548 131.575 184.988C133.009 188.428 133.725 192.384 133.725 196.856C133.725 201.328 133.037 205.313 131.661 208.81C130.285 212.25 128.365 215.145 125.899 217.496C123.491 219.789 120.625 221.538 117.299 222.742C113.974 223.946 110.362 224.548 106.463 224.548C102.565 224.548 98.9527 223.946 95.6273 222.742C92.302 221.481 89.4353 219.675 87.0273 217.324C84.6193 214.973 82.7273 212.078 81.3513 208.638C79.9753 205.198 79.2873 201.271 79.2873 196.856ZM94.7673 196.856C94.7673 202.073 95.828 205.972 97.9493 208.552C100.071 211.132 102.909 212.422 106.463 212.422C110.075 212.422 112.942 211.132 115.063 208.552C117.185 205.972 118.245 202.073 118.245 196.856C118.245 191.696 117.185 187.826 115.063 185.246C112.999 182.666 110.161 181.376 106.549 181.376C102.995 181.376 100.128 182.666 97.9493 185.246C95.828 187.769 94.7673 191.639 94.7673 196.856ZM168.91 181.376C164.495 181.376 161.113 182.723 158.762 185.418C156.411 188.113 155.236 191.925 155.236 196.856C155.236 201.844 156.526 205.685 159.106 208.38C161.743 211.075 165.269 212.422 169.684 212.422C172.035 212.422 174.013 212.107 175.618 211.476C177.281 210.845 178.857 210.129 180.348 209.326C181.323 210.129 182.068 211.103 182.584 212.25C183.157 213.339 183.444 214.629 183.444 216.12C183.444 218.471 182.125 220.477 179.488 222.14C176.908 223.745 172.952 224.548 167.62 224.548C163.779 224.548 160.167 224.003 156.784 222.914C153.401 221.825 150.449 220.162 147.926 217.926C145.403 215.633 143.397 212.766 141.906 209.326C140.473 205.829 139.756 201.672 139.756 196.856C139.756 192.384 140.444 188.457 141.82 185.074C143.253 181.634 145.174 178.739 147.582 176.388C150.047 174.037 152.914 172.26 156.182 171.056C159.45 169.852 162.947 169.25 166.674 169.25C171.949 169.25 176.019 170.11 178.886 171.83C181.81 173.55 183.272 175.757 183.272 178.452C183.272 179.943 182.899 181.233 182.154 182.322C181.409 183.411 180.549 184.271 179.574 184.902C178.083 183.927 176.478 183.096 174.758 182.408C173.095 181.72 171.146 181.376 168.91 181.376Z" fill="url(#paint0_linear)"/>
</g>
<defs>
<linearGradient id="paint0_linear" x1="30.5" y1="223" x2="32" y2="163" gradientUnits="userSpaceOnUse">
<stop offset="0.46865" stop-color="#5167A0"/>
<stop offset="0.46875" stop-color="#5383FF"/>
</linearGradient>
<clipPath id="clip0">
<rect width="250" height="250" fill="white"/>
</clipPath>
</defs>
</svg>
